<svg id="svg" version="1.1" xmlns="http://www.w3.org/2000/svg" width="400" height="400"
     viewBox="0, 0, 400,400">
    <g id="svgg">
        <path id="path0"
              d="M273.318 109.403 C 272.392 110.051,269.195 113.774,255.112 130.600 C 239.560 149.182,230.593 159.874,222.406 169.600 C 210.626 183.593,196.194 200.793,185.654 213.400 C 172.280 229.396,173.706 227.858,172.781 227.281 C 172.346 227.009,167.343 222.875,161.664 218.093 C 155.985 213.312,145.888 204.810,139.226 199.200 C 117.532 180.932,120.938 181.930,112.950 191.500 C 109.691 195.405,103.554 202.707,99.312 207.727 C 92.667 215.592,91.600 217.039,91.600 218.187 C 91.600 219.647,90.821 218.949,115.959 240.020 C 121.327 244.519,131.587 253.123,138.759 259.140 C 171.338 286.471,178.036 292.000,178.567 292.000 C 179.868 292.000,180.734 291.133,187.302 283.253 C 191.085 278.714,198.054 270.410,202.790 264.800 C 210.900 255.192,222.557 241.289,234.781 226.646 C 237.741 223.101,244.041 215.612,248.781 210.006 C 253.522 204.399,258.208 198.819,259.195 197.606 C 260.182 196.392,266.302 189.087,272.795 181.372 C 305.761 142.197,308.195 139.213,308.322 137.811 C 308.440 136.510,308.175 136.237,300.522 129.786 C 296.165 126.113,289.390 120.383,285.468 117.054 C 275.536 108.625,274.953 108.257,273.318 109.403 "
              stroke="none" fill="#fbfbfb" fill-rule="evenodd"></path>
        <path id="path1"
              d="M182.200 0.821 C 177.933 1.165,171.830 1.871,170.200 2.211 C 169.760 2.302,167.060 2.748,164.200 3.201 C 161.340 3.654,158.640 4.198,158.200 4.410 C 157.760 4.622,155.420 5.172,153.000 5.631 C 150.581 6.091,148.421 6.607,148.200 6.777 C 147.980 6.948,146.360 7.412,144.600 7.808 C 142.840 8.204,140.950 8.748,140.400 9.017 C 139.850 9.286,137.966 9.897,136.214 10.375 C 134.462 10.854,132.842 11.391,132.614 11.570 C 132.386 11.749,131.480 12.122,130.600 12.398 C 129.720 12.674,128.100 13.301,127.000 13.792 C 125.900 14.283,124.280 14.916,123.400 15.199 C 122.520 15.482,121.456 15.951,121.035 16.240 C 120.614 16.530,119.309 17.069,118.135 17.438 C 116.961 17.807,116.000 18.240,116.000 18.400 C 116.000 18.560,115.145 19.010,114.100 19.400 C 113.055 19.790,111.930 20.321,111.600 20.580 C 111.270 20.838,110.190 21.394,109.200 21.814 C 108.210 22.234,107.310 22.695,107.200 22.839 C 107.090 22.982,106.055 23.504,104.900 23.999 C 103.745 24.494,102.800 25.044,102.800 25.222 C 102.800 25.400,102.395 25.672,101.900 25.827 C 100.742 26.187,95.993 28.978,95.166 29.783 C 94.818 30.122,94.368 30.400,94.166 30.401 C 93.752 30.402,89.370 33.222,88.300 34.176 C 87.915 34.519,87.465 34.801,87.300 34.802 C 87.135 34.803,86.051 35.523,84.892 36.402 C 83.732 37.281,82.614 38.000,82.406 38.000 C 82.198 38.000,81.835 38.360,81.600 38.800 C 81.365 39.240,80.977 39.600,80.739 39.600 C 80.501 39.600,79.723 40.095,79.011 40.700 C 78.298 41.305,76.765 42.520,75.604 43.400 C 74.442 44.280,72.932 45.495,72.246 46.101 C 71.561 46.706,70.460 47.659,69.800 48.219 C 64.427 52.774,56.719 60.272,52.200 65.340 C 50.660 67.067,48.860 69.085,48.200 69.823 C 46.764 71.429,45.321 73.167,43.403 75.600 C 42.623 76.590,41.448 78.063,40.792 78.873 C 40.137 79.683,39.600 80.532,39.600 80.759 C 39.600 80.986,39.240 81.365,38.800 81.600 C 38.360 81.835,38.000 82.247,37.999 82.514 C 37.999 82.781,37.474 83.614,36.832 84.364 C 36.191 85.114,35.427 86.188,35.133 86.752 C 34.840 87.315,34.364 88.051,34.076 88.388 C 33.145 89.474,30.402 93.788,30.401 94.166 C 30.400 94.368,30.122 94.818,29.783 95.166 C 28.978 95.993,26.187 100.742,25.827 101.900 C 25.672 102.395,25.400 102.800,25.222 102.800 C 25.044 102.800,24.494 103.745,23.999 104.900 C 23.504 106.055,22.982 107.090,22.839 107.200 C 22.695 107.310,22.234 108.210,21.814 109.200 C 21.394 110.190,20.838 111.270,20.580 111.600 C 20.321 111.930,19.790 113.055,19.400 114.100 C 19.010 115.145,18.565 116.000,18.410 116.000 C 18.255 116.000,17.884 116.765,17.586 117.700 C 17.288 118.635,16.559 120.390,15.968 121.600 C 15.376 122.810,14.668 124.520,14.394 125.400 C 14.120 126.280,13.763 127.180,13.601 127.400 C 13.439 127.620,12.988 128.790,12.600 130.000 C 12.212 131.210,11.716 132.425,11.498 132.700 C 11.280 132.975,11.236 133.200,11.400 133.200 C 11.564 133.200,11.512 133.425,11.285 133.700 C 11.057 133.975,10.571 135.362,10.203 136.782 C 9.836 138.203,9.309 139.823,9.032 140.382 C 8.755 140.942,8.204 142.840,7.808 144.600 C 7.412 146.360,6.946 147.982,6.774 148.204 C 6.602 148.427,6.078 150.677,5.610 153.204 C 5.141 155.732,4.577 158.168,4.356 158.618 C 4.134 159.067,3.600 161.677,3.170 164.418 C 2.739 167.158,2.312 169.760,2.221 170.200 C -0.086 181.392,-0.203 219.051,2.037 229.548 C 2.255 230.567,2.781 233.650,3.207 236.400 C 3.633 239.150,4.154 241.760,4.363 242.200 C 4.573 242.640,5.127 244.973,5.594 247.385 C 6.060 249.796,6.587 251.956,6.763 252.185 C 6.940 252.413,7.476 254.276,7.954 256.325 C 8.433 258.374,8.993 260.354,9.200 260.725 C 9.406 261.096,9.933 262.570,10.371 264.000 C 11.521 267.755,13.229 272.535,13.587 273.000 C 13.757 273.220,14.121 274.120,14.396 275.000 C 14.670 275.880,15.297 277.417,15.789 278.416 C 16.280 279.414,16.912 280.944,17.192 281.816 C 17.472 282.687,17.924 283.670,18.196 284.000 C 18.468 284.330,19.010 285.455,19.400 286.500 C 19.790 287.545,20.275 288.400,20.478 288.400 C 20.681 288.400,20.736 288.580,20.600 288.800 C 20.464 289.020,20.515 289.200,20.712 289.200 C 20.910 289.200,21.317 289.944,21.617 290.853 C 21.917 291.762,22.363 292.707,22.608 292.953 C 22.852 293.199,23.537 294.390,24.129 295.600 C 25.486 298.374,27.286 301.677,27.724 302.200 C 28.125 302.677,29.618 305.176,30.831 307.400 C 31.311 308.280,31.951 309.144,32.252 309.320 C 32.553 309.496,32.800 309.875,32.800 310.161 C 32.800 310.448,33.205 311.131,33.700 311.677 C 34.195 312.224,34.946 313.285,35.369 314.036 C 36.281 315.656,37.463 317.292,38.700 318.649 C 39.195 319.192,39.600 319.737,39.600 319.861 C 39.600 320.277,43.975 325.822,45.700 327.592 C 46.305 328.213,46.800 328.889,46.800 329.094 C 46.800 329.300,47.295 329.929,47.900 330.493 C 48.505 331.057,49.720 332.384,50.600 333.443 C 51.480 334.501,54.900 338.080,58.200 341.396 C 63.639 346.861,65.947 349.029,69.928 352.413 C 70.658 353.034,71.844 354.050,72.563 354.671 C 73.282 355.292,74.459 356.250,75.178 356.800 C 75.898 357.350,76.872 358.115,77.343 358.499 C 78.763 359.657,81.662 361.770,82.511 362.264 C 82.950 362.519,83.419 362.881,83.554 363.068 C 83.689 363.255,85.240 364.350,87.000 365.501 C 88.760 366.653,90.485 367.866,90.834 368.198 C 91.182 368.529,91.581 368.800,91.720 368.800 C 91.946 368.800,96.379 371.520,97.412 372.292 C 97.639 372.461,98.715 373.050,99.805 373.600 C 100.894 374.150,101.988 374.786,102.234 375.013 C 102.481 375.240,103.474 375.775,104.441 376.202 C 105.409 376.629,106.290 377.083,106.400 377.211 C 106.668 377.524,114.193 381.200,114.565 381.200 C 114.726 381.200,115.112 381.455,115.423 381.766 C 115.735 382.077,116.937 382.644,118.095 383.025 C 119.253 383.406,120.290 383.836,120.400 383.980 C 120.510 384.123,121.500 384.571,122.600 384.974 C 123.700 385.377,125.550 386.132,126.712 386.653 C 127.873 387.174,129.008 387.600,129.234 387.600 C 129.459 387.600,130.399 387.944,131.322 388.364 C 132.245 388.785,134.215 389.452,135.700 389.848 C 137.185 390.244,138.400 390.695,138.400 390.851 C 138.400 391.007,140.155 391.532,142.300 392.019 C 144.445 392.505,146.290 393.040,146.400 393.208 C 146.510 393.375,148.580 393.897,151.000 394.368 C 153.420 394.838,155.693 395.386,156.052 395.585 C 156.410 395.784,158.660 396.243,161.052 396.606 C 163.443 396.969,165.697 397.421,166.061 397.612 C 166.863 398.032,175.369 399.023,183.000 399.584 C 190.161 400.112,210.735 400.120,217.442 399.599 C 225.343 398.985,233.710 398.023,234.600 397.627 C 235.040 397.431,237.380 396.965,239.800 396.590 C 242.220 396.216,244.290 395.794,244.400 395.652 C 244.510 395.510,246.670 394.972,249.200 394.456 C 251.730 393.939,253.890 393.388,254.000 393.232 C 254.110 393.075,255.640 392.620,257.400 392.222 C 259.160 391.824,261.144 391.250,261.808 390.947 C 262.472 390.644,264.245 390.045,265.746 389.615 C 267.248 389.186,268.684 388.666,268.938 388.460 C 269.192 388.254,270.525 387.773,271.900 387.390 C 273.275 387.008,274.400 386.571,274.400 386.420 C 274.400 386.269,275.660 385.733,277.200 385.228 C 278.740 384.723,280.000 384.170,280.000 383.998 C 280.000 383.827,280.495 383.567,281.100 383.422 C 281.705 383.276,283.857 382.356,285.882 381.378 C 287.907 380.400,289.752 379.600,289.982 379.600 C 290.212 379.600,290.400 379.444,290.400 379.254 C 290.400 379.064,291.210 378.599,292.200 378.221 C 293.190 377.843,294.000 377.398,294.000 377.231 C 294.000 377.064,294.715 376.692,295.590 376.403 C 296.464 376.115,297.499 375.591,297.890 375.239 C 298.280 374.888,299.500 374.164,300.600 373.632 C 301.700 373.100,302.690 372.539,302.800 372.386 C 302.910 372.233,303.720 371.714,304.600 371.233 C 307.189 369.818,309.281 368.512,309.549 368.144 C 309.878 367.693,312.010 366.411,312.900 366.129 C 313.285 366.007,313.600 365.765,313.600 365.593 C 313.600 365.420,314.233 364.906,315.007 364.449 C 315.780 363.993,316.635 363.436,316.907 363.213 C 318.687 361.747,321.620 359.600,321.842 359.600 C 321.989 359.600,322.527 359.195,323.039 358.700 C 323.551 358.205,324.543 357.350,325.242 356.800 C 325.942 356.250,327.043 355.305,327.688 354.700 C 328.333 354.095,328.983 353.598,329.131 353.595 C 329.923 353.580,341.657 342.423,347.061 336.546 C 352.764 330.343,353.590 329.406,353.595 329.131 C 353.598 328.983,354.095 328.333,354.700 327.688 C 355.305 327.043,356.250 325.942,356.800 325.242 C 357.350 324.543,358.205 323.551,358.700 323.039 C 359.195 322.527,359.600 321.989,359.600 321.842 C 359.600 321.696,360.321 320.637,361.203 319.488 C 362.085 318.340,362.944 317.220,363.111 317.000 C 364.469 315.218,367.600 310.344,367.600 310.014 C 367.600 309.786,367.776 309.600,367.992 309.600 C 368.207 309.600,368.757 308.925,369.213 308.100 C 370.518 305.738,371.908 303.437,372.292 303.000 C 372.486 302.780,373.084 301.700,373.622 300.600 C 374.160 299.500,374.888 298.280,375.239 297.890 C 375.591 297.499,376.115 296.464,376.403 295.590 C 376.692 294.715,377.064 294.000,377.231 294.000 C 377.398 294.000,377.843 293.190,378.221 292.200 C 378.599 291.210,379.064 290.400,379.254 290.400 C 379.444 290.400,379.600 290.212,379.600 289.982 C 379.600 289.752,380.400 287.907,381.378 285.882 C 382.356 283.857,383.276 281.705,383.422 281.100 C 383.567 280.495,383.823 280.000,383.989 280.000 C 384.156 280.000,384.700 278.785,385.199 277.300 C 385.698 275.815,386.229 274.510,386.378 274.400 C 386.528 274.290,386.978 273.120,387.380 271.800 C 387.782 270.480,388.273 269.192,388.472 268.938 C 388.672 268.684,389.186 267.248,389.615 265.746 C 390.045 264.245,390.644 262.472,390.947 261.808 C 391.250 261.144,391.824 259.160,392.222 257.400 C 392.620 255.640,393.075 254.110,393.232 254.000 C 393.388 253.890,393.939 251.730,394.456 249.200 C 394.972 246.670,395.510 244.510,395.652 244.400 C 395.794 244.290,396.216 242.220,396.590 239.800 C 396.965 237.380,397.425 235.040,397.613 234.600 C 399.430 230.355,400.672 198.007,399.595 183.000 C 399.072 175.721,398.032 166.870,397.603 166.047 C 397.417 165.691,396.969 163.443,396.606 161.052 C 396.243 158.660,395.784 156.410,395.585 156.052 C 395.386 155.693,394.838 153.420,394.368 151.000 C 393.897 148.580,393.375 146.510,393.208 146.400 C 393.040 146.290,392.505 144.445,392.019 142.300 C 391.532 140.155,391.004 138.400,390.844 138.400 C 390.685 138.400,390.226 137.095,389.826 135.500 C 389.425 133.905,388.878 132.240,388.610 131.800 C 388.342 131.360,387.801 130.010,387.408 128.800 C 387.016 127.590,386.560 126.420,386.396 126.200 C 386.231 125.980,385.691 124.585,385.195 123.100 C 384.698 121.615,384.169 120.400,384.019 120.400 C 383.869 120.400,383.436 119.415,383.056 118.212 C 382.677 117.008,382.104 115.761,381.783 115.440 C 381.462 115.120,381.200 114.726,381.200 114.565 C 381.200 114.193,377.524 106.668,377.211 106.400 C 377.083 106.290,376.629 105.409,376.202 104.441 C 375.775 103.474,375.240 102.484,375.013 102.241 C 374.786 101.999,374.160 100.900,373.622 99.800 C 373.084 98.700,372.496 97.620,372.314 97.400 C 371.690 96.644,368.800 91.973,368.800 91.720 C 368.800 91.581,368.529 91.182,368.198 90.834 C 367.866 90.485,366.653 88.760,365.501 87.000 C 364.350 85.240,363.255 83.689,363.068 83.554 C 362.881 83.419,362.519 82.950,362.264 82.511 C 361.647 81.451,359.298 78.298,356.600 74.908 C 355.278 73.246,352.206 69.645,349.343 66.400 C 346.569 63.255,335.748 52.495,333.455 50.600 C 332.390 49.720,331.057 48.505,330.493 47.900 C 329.929 47.295,329.300 46.800,329.094 46.800 C 328.889 46.800,328.213 46.305,327.592 45.700 C 325.822 43.975,320.277 39.600,319.861 39.600 C 319.737 39.600,319.192 39.195,318.649 38.700 C 317.292 37.463,315.656 36.281,314.036 35.369 C 313.285 34.946,312.224 34.195,311.677 33.700 C 311.131 33.205,310.448 32.800,310.161 32.800 C 309.875 32.800,309.496 32.553,309.320 32.252 C 309.144 31.951,308.280 31.313,307.400 30.835 C 306.520 30.357,304.630 29.249,303.200 28.374 C 301.770 27.498,299.989 26.502,299.242 26.161 C 298.495 25.820,297.643 25.300,297.349 25.006 C 297.055 24.712,296.001 24.161,295.007 23.782 C 294.013 23.402,293.200 22.954,293.200 22.786 C 293.200 22.618,292.300 22.157,291.200 21.761 C 290.100 21.366,289.200 20.887,289.200 20.697 C 289.200 20.508,289.020 20.464,288.800 20.600 C 288.580 20.736,288.400 20.681,288.400 20.478 C 288.400 20.275,287.545 19.790,286.500 19.400 C 285.455 19.010,284.330 18.468,284.000 18.196 C 283.670 17.924,282.687 17.472,281.816 17.192 C 280.944 16.912,279.414 16.280,278.416 15.789 C 277.417 15.297,275.880 14.670,275.000 14.396 C 274.120 14.121,273.220 13.757,273.000 13.587 C 272.535 13.229,267.755 11.521,264.000 10.371 C 262.570 9.933,261.096 9.406,260.725 9.200 C 260.354 8.993,258.374 8.433,256.325 7.954 C 254.276 7.476,252.413 6.940,252.185 6.763 C 251.956 6.587,249.796 6.060,247.385 5.594 C 244.973 5.127,242.640 4.573,242.200 4.363 C 241.760 4.154,239.060 3.619,236.200 3.176 C 233.340 2.732,230.550 2.276,230.000 2.162 C 223.527 0.819,192.907 -0.039,182.200 0.821 M277.660 110.100 C 278.846 111.035,280.172 112.104,280.608 112.475 C 283.233 114.711,293.264 123.112,299.600 128.380 C 309.747 136.817,309.972 137.100,308.338 139.383 C 306.954 141.318,297.608 152.564,285.553 166.800 C 284.901 167.570,283.847 168.830,283.211 169.600 C 282.575 170.370,280.909 172.350,279.509 174.000 C 277.051 176.897,263.283 193.350,261.941 194.993 C 261.579 195.437,258.243 199.400,254.527 203.800 C 250.812 208.200,245.532 214.500,242.795 217.800 C 240.057 221.100,234.390 227.850,230.201 232.800 C 226.011 237.750,219.898 245.040,216.615 249.000 C 213.332 252.960,208.647 258.540,206.204 261.400 C 203.760 264.260,198.093 271.010,193.611 276.400 C 180.897 291.690,180.604 292.000,178.834 292.000 C 177.193 292.000,177.527 292.269,140.793 261.400 C 132.153 254.140,119.306 243.368,112.242 237.462 C 95.392 223.372,91.316 219.796,91.011 218.836 C 90.639 217.663,91.504 216.286,95.680 211.400 C 97.748 208.980,103.495 202.139,108.451 196.197 C 113.408 190.256,117.776 185.081,118.160 184.697 C 119.449 183.408,121.859 183.882,124.000 185.847 C 124.878 186.653,146.083 204.482,150.759 208.347 C 151.726 209.146,154.966 211.877,157.959 214.416 C 165.980 221.220,173.200 227.200,173.394 227.200 C 173.487 227.200,176.674 223.465,180.474 218.900 C 184.275 214.335,190.277 207.180,193.813 203.000 C 197.349 198.820,204.822 189.930,210.421 183.245 C 231.056 158.606,242.345 145.144,248.065 138.358 C 251.291 134.531,257.751 126.841,262.421 121.269 C 274.877 106.407,273.892 107.129,277.660 110.100 "
              stroke="none" fill="#7ccc4c" fill-rule="evenodd"></path>
        <path id="path2" d="" stroke="none" fill="#a2dd83" fill-rule="evenodd"></path>
        <path id="path3" d="" stroke="none" fill="#bce4a4" fill-rule="evenodd"></path>
        <path id="path4"
              d="M272.175 110.100 L 271.000 111.400 272.398 110.200 C 273.167 109.540,273.872 108.955,273.965 108.900 C 274.057 108.845,273.957 108.800,273.742 108.800 C 273.526 108.800,272.821 109.385,272.175 110.100 "
              stroke="none" fill="#bce4ac" fill-rule="evenodd"></path>
    </g>
</svg>